# xmcd
#
# Track frame offsets: 
#        150
#        18792
#        38897
#        57757
#        72272
#        110560
#        123187
#        147492
#        168517
#        186634
#        210085
#        226567
#
# Disc length: 3316 seconds
#
# Revision: 2
# Processed by: cddbd v1.5.2PL0 Copyright (c) Steve Scherf et al.
# Submitted via: ExactAudioCopy v0.99pb3
#
DISCID=9e0cf20c
DTITLE=Various Artist - Masters Of The Blues-Tribute To Elmore Jame
DYEAR=1996
DGENRE=Blues
TTITLE0=Johnny Winter - Stranger Blues
TTITLE1=Dr. Hector and The Groove Injectors - Pickin' The Blues
TTITLE2=Albert King - The Sky Is Crying
TTITLE3=The Nighthawks - Shake Your Moneymaker
TTITLE4=Homesick James - 12 Year Old Boy
TTITLE5=Buddy Guy and Junior Wells - It Hurts Me Too
TTITLE6=Alan Haynes - My Bleeding Heart
TTITLE7=The Bluebirds - Dust My Broom
TTITLE8=Fred James - Whose Muddy Shoes
TTITLE9=Dave Hole - The Sun Is Shining
TTITLE10=Tony Sarno - Talk To Me Baby
TTITLE11=Allman Brothers - One Way Out
EXTD=
EXTT0=Johnny Winter\n
EXTT1=Dr. Hector and The Groove Injectors\n
EXTT2=Albert King\n
EXTT3=The Nighthawks\n
EXTT4=Homesick James\n
EXTT5=Buddy Guy/Junior Wells\n
EXTT6=Alan Haynes\n
EXTT7=The Bluebirds\n
EXTT8=Fred James\n
EXTT9=Dave Hole\n
EXTT10=Tony Sarno\n
EXTT11=Allman Brothers\n
PLAYORDER=
